# xmcd CD database file
#
# Track frame offsets:
#	150
#	20839
#	35150
#	61449
#	99119
#	126009
#	157521
#	190620
#	219816
#	242647
#	270555
#	297266
#
# Disc length: 4240 seconds
#
# Revision: 0
# Processed by: cddbd v1.5.2PL0 Copyright (c) Steve Scherf et al.
# Submitted via: CDex 1.99.1
#
DISCID=9b108e0c
DTITLE=Mulligan, Gerry  (1927-1996) - Gerry Mulligan 1961-1962 - GM Presents A Concert In Jazz (1-2), Two Of A Mind (3-8), The Gerry Mulligan Quartet (9-12)
DYEAR=1962
DGENRE=Jazz
TTITLE0=Summer's Over
TTITLE1=Israel
TTITLE2=All The Things You Are
TTITLE3=Stardust
TTITLE4=Two Of A Mind
TTITLE5=Blight Of The Fumble Bee
TTITLE6=The Way You Look Tonight
TTITLE7=Out Of Nowhere
TTITLE8=I'm Getting Sentimental Over You
TTITLE9=Piano Train
TTITLE10=Lost In The Stars
TTITLE11=I Believe In You
EXTD=YEAR: 1962
EXTT0=
EXTT1=
EXTT2=
EXTT3=
EXTT4=
EXTT5=
EXTT6=
EXTT7=
EXTT8=
EXTT9=
EXTT10=
EXTT11=
PLAYORDER=
